<svg xmlns="http://www.w3.org/2000/svg" width="320" height="180" viewBox="0 0 320 180" preserveAspectRatio="xMidYMid slice">
  <g transform="scale(0.16666666666666666 0.16666666666666666)">
  
  <defs>
    <linearGradient id="40badb85-base" x1="0" y1="0" x2="1920" y2="1080">
      <stop stop-color="#fafafa"/>
      <stop offset="1" stop-color="#f4f4f5"/>
    </linearGradient>
    <radialGradient id="40badb85-glow" cx="50%" cy="24%" r="45%">
      <stop stop-color="#64748b" stop-opacity="0.04"/>
      <stop offset="1" stop-opacity="0"/>
    </radialGradient>
  </defs>
  <rect width="1920" height="1080" fill="url(#40badb85-base)"/>
  <rect width="1920" height="1080" fill="url(#40badb85-glow)"/>
  <rect x="80" y="120" width="420" height="260" rx="6" fill="white" fill-opacity="0.55" stroke="#334155" stroke-width="0.8" opacity="0.9"/>
  <path d="M104 130 L114 140 L104 150 L94 140 Z" fill="none" stroke="#334155" stroke-width="1.2" opacity="0.4"/>
  <circle cx="104" cy="140" r="2" fill="#334155" opacity="0.4"/>
  <rect x="1420" y="120" width="420" height="260" rx="6" fill="white" fill-opacity="0.55" stroke="#334155" stroke-width="0.8" opacity="0.9"/>
  <path d="M1444 130 L1454 140 L1444 150 L1434 140 Z" fill="none" stroke="#334155" stroke-width="1.2" opacity="0.4"/>
  <circle cx="1444" cy="140" r="2" fill="#334155" opacity="0.4"/>
  <rect x="80" y="420" width="1760" height="280" rx="6" fill="white" fill-opacity="0.55" stroke="#334155" stroke-width="0.8" opacity="0.9"/>
  <path d="M104 430 L114 440 L104 450 L94 440 Z" fill="none" stroke="#334155" stroke-width="1.2" opacity="0.4"/>
  <circle cx="104" cy="440" r="2" fill="#334155" opacity="0.4"/>

  </g>
</svg>