<svg xmlns="http://www.w3.org/2000/svg" width="320" height="180" viewBox="0 0 320 180" preserveAspectRatio="xMidYMid slice">
  <g transform="scale(0.16666666666666666 0.16666666666666666)">
  
  <defs>
    <linearGradient id="3edd0235-base" x1="0" y1="0" x2="1920" y2="1080">
      <stop stop-color="#f8fafc"/>
      <stop offset="1" stop-color="#f1f5f9"/>
    </linearGradient>
    <radialGradient id="3edd0235-glow" cx="50%" cy="24%" r="45%">
      <stop stop-color="#3b82f6" stop-opacity="0.04"/>
      <stop offset="1" stop-opacity="0"/>
    </radialGradient>
  </defs>
  <rect width="1920" height="1080" fill="url(#3edd0235-base)"/>
  <rect width="1920" height="1080" fill="url(#3edd0235-glow)"/>
  <rect x="80" y="120" width="420" height="260" rx="6" fill="white" fill-opacity="0.55" stroke="#2563eb" stroke-width="0.8" opacity="0.9"/>
  <polygon points="112.66025403784438,135 112.66025403784438,145 104,150 95.33974596215562,145 95.3397459621556,135 103.99999999999999,130" fill="none" stroke="#2563eb" stroke-width="1.2" opacity="0.4"/>
  <circle cx="104" cy="140" r="2.5" fill="#2563eb" opacity="0.24"/>
  <rect x="1420" y="120" width="420" height="260" rx="6" fill="white" fill-opacity="0.55" stroke="#2563eb" stroke-width="0.8" opacity="0.9"/>
  <polygon points="1452.6602540378444,135 1452.6602540378444,145 1444,150 1435.3397459621556,145 1435.3397459621556,135 1444,130" fill="none" stroke="#2563eb" stroke-width="1.2" opacity="0.4"/>
  <circle cx="1444" cy="140" r="2.5" fill="#2563eb" opacity="0.24"/>
  <rect x="80" y="420" width="1760" height="280" rx="6" fill="white" fill-opacity="0.55" stroke="#2563eb" stroke-width="0.8" opacity="0.9"/>
  <polygon points="112.66025403784438,435 112.66025403784438,445 104,450 95.33974596215562,445 95.3397459621556,435 103.99999999999999,430" fill="none" stroke="#2563eb" stroke-width="1.2" opacity="0.4"/>
  <circle cx="104" cy="440" r="2.5" fill="#2563eb" opacity="0.24"/>

  </g>
</svg>